<?xml version="1.0" encoding="UTF-8" standalone="no"?>
<!-- Created with Inkscape (http://www.inkscape.org/) -->

<svg
   xmlns:dc="http://purl.org/dc/elements/1.1/"
   xmlns:cc="http://creativecommons.org/ns#"
   xmlns:rdf="http://www.w3.org/1999/02/22-rdf-syntax-ns#"
   xmlns:svg="http://www.w3.org/2000/svg"
   xmlns="http://www.w3.org/2000/svg"
   xmlns:sodipodi="http://sodipodi.sourceforge.net/DTD/sodipodi-0.dtd"
   xmlns:inkscape="http://www.inkscape.org/namespaces/inkscape"
   width="200"
   height="200"
   id="svg2"
   version="1.1"
   inkscape:version="0.48.2 r9819"
   sodipodi:docname="bonsai.svg">
  <defs
     id="defs4">
    <inkscape:perspective
       sodipodi:type="inkscape:persp3d"
       inkscape:vp_x="0 : 526.18109 : 1"
       inkscape:vp_y="0 : 1000 : 0"
       inkscape:vp_z="744.09448 : 526.18109 : 1"
       inkscape:persp3d-origin="372.04724 : 350.78739 : 1"
       id="perspective2985" />
  </defs>
  <sodipodi:namedview
     id="base"
     pagecolor="#ffffff"
     bordercolor="#666666"
     borderopacity="1.0"
     inkscape:pageopacity="0.0"
     inkscape:pageshadow="2"
     inkscape:zoom="0.7"
     inkscape:cx="277.69882"
     inkscape:cy="227.11747"
     inkscape:document-units="px"
     inkscape:current-layer="layer1"
     showgrid="false"
     inkscape:window-width="1209"
     inkscape:window-height="640"
     inkscape:window-x="20"
     inkscape:window-y="20"
     inkscape:window-maximized="0" />
  <metadata
     id="metadata7">
    <rdf:RDF>
      <cc:Work
         rdf:about="">
        <dc:format>image/svg+xml</dc:format>
        <dc:type
           rdf:resource="http://purl.org/dc/dcmitype/StillImage" />
        <dc:title></dc:title>
      </cc:Work>
    </rdf:RDF>
  </metadata>
  <g
     inkscape:label="Layer 1"
     inkscape:groupmode="layer"
     id="layer1"
     transform="translate(0,-852.36218)">
    <path
       style="fill:#ffffff;fill-opacity:1;fill-rule:nonzero;stroke:none"
       id="path3039"
       d="m -7.3782211,1047.288 c 0.4204078,-0.1835 0.8464829,-0.3546 1.2612242,-0.5507 1.4340896,-0.6775 2.8370946,-1.4198 4.2710588,-2.0978 3.8039487,-1.7984 7.6663281,-3.4734 11.5125765,-5.1783 8.7172746,-3.6054 16.9919186,-8.2086 25.7519586,-11.7129 1.66928,-0.6678 3.371088,-1.2512 5.056632,-1.8768 11.407973,-3.7558 23.479047,-4.2442 35.378961,-4.6779 17.392495,-0.3821 34.79146,-0.2475 52.18701,-0.2072 -4.21805,-0.04 15.11063,0.052 11.3332,0.01 -3.70389,-0.046 -7.40991,0.047 -11.1123,-0.069 -1.38909,-0.043 2.77907,-0.07 4.16665,-0.1472 3.28855,-0.1836 3.53059,-0.2802 6.66121,-0.7189 3.81734,-0.7263 7.58044,-1.7657 11.224,-3.1162 1.53191,-0.4753 2.84978,-1.3054 4.17563,-2.1702 2.75842,-1.6713 5.48112,-3.391 8.16512,-5.18 2.18946,-1.4739 4.50861,-2.7325 6.63596,-4.2989 0,0 18.20941,1.6926 18.20941,1.6926 l 0,0 c -2.19563,1.6755 -4.67917,2.9169 -7.01277,4.3817 -0.28149,0.1801 -2.67263,1.7083 -2.92182,1.876 -1.66315,1.1193 -1.15007,0.8694 -2.78592,1.917 -0.379,0.2428 -0.78374,0.4446 -1.15621,0.6972 -0.30962,0.21 -0.59106,0.4588 -0.88658,0.6883 -0.40442,0.2935 -0.82766,0.5618 -1.2183,0.8735 -0.19329,0.1541 -0.3535,0.3488 -0.55464,0.4925 -0.81157,0.5802 -1.8044,0.8327 -2.69503,1.2518 -4.00837,1.3549 -8.0762,2.5396 -12.23939,3.3262 -1.11731,0.1695 -2.22915,0.3799 -3.3519,0.5085 -2.58536,0.2959 -5.73478,0.4407 -8.31003,0.4589 -10.61818,0.076 -21.23461,0.045 -31.8522,-0.015 -4.01643,-0.011 -24.690446,-0.091 -2.63418,-0.034 2.05377,0.01 -4.10755,0.01 -6.1613,0.014 -6.376015,0.032 -6.075592,0.047 -12.462506,0.1573 -11.715929,0.3748 -23.586951,0.7773 -34.878869,4.2494 -1.699846,0.5962 -3.416446,1.1464 -5.09954,1.7883 -8.70376,3.3192 -16.932868,7.7565 -25.356118,11.7 -5.070097,2.4625 -10.287074,4.7891 -14.930339,8.0133 0,0 -18.3706591,-2.0422 -18.3706591,-2.0422 z"
       inkscape:connector-curvature="0" />
    <path
       style="fill:#ffffff;fill-opacity:1;fill-rule:nonzero;stroke:none"
       id="path3055"
       d="m 40.719844,1025.1669 c 4.563623,-1.3601 9.240329,-2.2742 13.838838,-3.5085 5.093553,-1.5339 9.96513,-3.7173 14.69538,-6.1316 3.20848,-1.6794 5.941212,-3.4008 8.135349,-6.3134 0.624977,-1.061 1.47937,-2.3932 0.880527,-3.6602 -0.224467,-0.4749 -1.04229,-1.39 -1.317585,-1.7203 -2.625144,-2.4829 -5.86967,-4.00059 -9.153188,-5.39343 -2.190356,-1.04344 -4.471368,-1.90288 -6.653159,-2.96285 -0.705671,-0.34284 -2.63961,-1.45053 -3.313089,-1.83131 -3.475718,-1.95509 -6.930237,-3.9097 -10.109317,-6.32686 -3.721685,-2.89033 -6.916035,-6.34087 -9.926054,-9.94617 -2.588997,-3.01677 -4.697812,-6.44915 -6.413901,-10.0289 -1.273912,-3.02297 -1.906989,-6.35957 -1.881335,-9.64651 0.0058,-0.69397 0.103751,-1.38409 0.155618,-2.07612 1.059056,-5.11076 4.801476,-8.45699 8.36841,-11.96648 5.863935,-5.64097 11.499784,-11.5082 17.161239,-17.35044 5.011332,-5.26384 10.094462,-10.4466 15.358201,-15.45785 1.684826,-1.62158 0.886077,-0.87104 2.389905,-2.25838 0,0 17.945916,1.62024 17.945916,1.62024 l 0,0 c -1.845664,1.26775 -0.869489,0.56495 -2.913375,2.12928 -5.817344,4.66719 -11.284306,9.71898 -16.320225,15.22992 -5.518026,5.78104 -10.960944,11.63274 -16.474166,17.41787 -1.801356,1.91657 -3.63024,3.7781 -5.201642,5.89266 -0.737392,0.99228 -1.501916,2.04764 -1.991709,3.19558 -0.233841,0.54806 -0.363152,1.13504 -0.544725,1.70255 -0.06174,0.60763 -0.17131,1.21227 -0.185098,1.82287 -0.06926,3.06657 0.781376,6.13174 1.968332,8.92696 1.727242,3.4002 3.656217,6.71716 6.151992,9.61998 2.964949,3.53249 6.184952,6.84332 9.97962,9.50039 3.271907,2.23479 6.71304,4.18228 10.181395,6.09508 3.252428,1.70717 6.629151,3.14336 9.977257,4.65071 3.436205,1.60947 6.816083,3.42974 9.440103,6.23661 0.327976,0.4334 0.705182,0.8338 0.983913,1.3005 1.274995,2.1349 0.656103,4.4223 -0.491769,6.445 -0.974585,1.3123 -1.971585,2.5734 -3.249518,3.614 -1.694076,1.3793 -3.673086,2.3545 -5.538417,3.4668 -4.84373,2.4186 -9.742253,4.7571 -14.896597,6.451 -2.49647,0.72 -2.835987,0.8435 -5.340414,1.466 -2.458247,0.6111 -4.984718,1.0587 -7.335475,2.0315 0,0 -18.361237,-2.2362 -18.361237,-2.2362 z"
       inkscape:connector-curvature="0" />
    <path
       style="fill:#ffffff;fill-opacity:1;fill-rule:nonzero;stroke:none"
       id="path3061"
       d="m 63.431654,942.95408 c 4.508669,1.31522 8.623445,3.69507 12.920473,5.54558 1.735529,0.7474 3.500472,1.42457 5.250711,2.13685 10.769028,3.9364 22.046682,6.33354 33.400952,7.81491 3.71998,0.48536 7.44806,0.94481 11.19174,1.18725 3.82317,0.2476 7.66007,0.18777 11.49011,0.28166 0,0 -12.74757,1.98193 -12.74757,1.98193 l 0,0 c -3.84742,-0.12425 -7.70165,-0.11269 -11.54229,-0.37274 -3.87062,-0.26208 -7.72722,-0.71489 -11.57717,-1.19267 -12.155259,-1.50849 -24.230387,-3.88786 -35.851388,-7.80901 -1.94295,-0.7075 -3.893497,-1.39443 -5.828833,-2.12249 -3.689843,-1.3881 -4.859359,-1.97426 -8.384554,-3.20857 -1.745906,-0.6113 -3.153161,-1.08923 -4.969505,-1.31688 -0.521026,-0.0652 -1.049874,-0.0265 -1.574811,-0.0397 0,0 18.222135,-2.8861 18.222135,-2.8861 z"
       inkscape:connector-curvature="0" />
    <path
       style="fill:#ffffff;fill-opacity:1;fill-rule:nonzero;stroke:none"
       id="path3087"
       d="m 1.0937807,918.56441 c 3.5372771,-4.84104 7.3159793,-9.57403 11.6312073,-13.75362 1.278023,-1.23784 2.64956,-2.37534 3.974343,-3.563 1.42253,-1.01685 2.782278,-2.12783 4.267593,-3.05055 5.238362,-3.25424 12.282484,-5.81012 18.49768,-6.02375 4.295991,-0.14766 8.597018,-0.026 12.895529,-0.0389 4.377682,0.2983 7.972936,1.40208 11.700587,3.62701 0,0 -9.744144,1.00786 -9.744144,1.00786 l 0,0 c -3.340878,-2.01356 -7.0225,-3.05449 -10.936938,-3.21682 1.646904,-0.0254 3.660393,-1.11254 4.940707,-0.0763 1.172302,0.94881 -3.015577,0.18653 -4.503978,0.42978 -6.745305,1.10237 -13.010981,3.9265 -18.420639,8.07546 -1.307415,1.16331 -2.672306,2.26507 -3.922245,3.48993 -4.048041,3.96679 -7.634813,8.5651 -10.316723,13.55982 0,0 -10.0629793,-0.4669 -10.0629793,-0.4669 z"
       inkscape:connector-curvature="0" />
    <path
       style="fill:#ffffff;fill-opacity:1;fill-rule:nonzero;stroke:none"
       id="path3089"
       d="m 43.156633,890.00077 c 3.21042,-1.53927 6.19795,-3.49804 9.31265,-5.21533 1.3309,-0.73379 2.682606,-1.42918 4.023912,-2.14376 9.941431,-5.34507 20.976016,-7.75175 32.065799,-9.30048 2.621965,-0.36617 5.257659,-0.62623 7.886483,-0.93934 6.220113,-0.4528 8.187063,-0.74181 14.297903,-0.64321 8.53995,0.13779 12.89315,-0.28318 20.19896,1.48929 4.72336,1.14594 5.68618,1.80982 10.05959,3.76199 5.58718,2.93883 10.48131,6.97178 14.75039,11.59842 1.67266,1.81275 2.90323,3.42112 4.42527,5.33129 1.33761,1.68365 2.62524,3.39252 3.79552,5.19514 0,0 -9.73043,0.53885 -9.73043,0.53885 l 0,0 c -1.03208,-1.76542 -2.13982,-3.4801 -3.36416,-5.12089 -1.4595,-1.94638 -2.49587,-3.40862 -4.14332,-5.24753 -4.10612,-4.58336 -8.92626,-8.48278 -14.41885,-11.28579 -4.32201,-1.86578 -5.25072,-2.49147 -9.89838,-3.57607 -1.83252,-0.42765 -3.813,-0.27707 -5.56035,-0.97549 -0.65289,-0.26095 2.76776,-0.36412 2.06694,-0.42082 -4.01625,-0.32488 -10.6476,0.2597 -14.5692,0.5134 -2.62958,0.30179 -5.266297,0.54692 -7.888779,0.90533 -10.769029,1.47179 -21.469546,3.83433 -31.064625,9.13303 -1.26332,0.71019 -2.543375,1.3914 -3.789963,2.13057 -2.872071,1.70299 -5.584541,3.66077 -8.443233,5.38445 0,0 -10.012127,-1.11305 -10.012127,-1.11305 z"
       inkscape:connector-curvature="0" />
    <path
       style="fill:#ffffff;fill-opacity:1;fill-rule:nonzero;stroke:none"
       id="path3091"
       d="m 159.67906,901.27772 c -4.0329,4.75282 -8.65153,9.00695 -13.75018,12.60035 -1.71592,1.20934 -3.51968,2.28894 -5.27954,3.43341 -9.75006,5.93057 -20.54096,9.81558 -31.66848,12.21083 -1.81109,0.38985 -3.64367,0.6723 -5.46549,1.00844 -6.945827,0.99014 -13.901087,0.79612 -20.9101,0.48986 -1.069591,-0.0468 -3.418917,-0.59769 -4.514556,-1.0093 -0.511215,-0.19206 -0.981605,-0.47893 -1.472407,-0.71839 -0.979937,-0.55572 -1.794738,-1.29777 -2.577416,-2.09289 0,0 9.926534,-0.78836 9.926534,-0.78836 l 0,0 c 0.717396,0.68374 1.447814,1.33135 2.350807,1.77135 1.402324,0.60367 1.519125,0.72902 3.130783,1.06414 0.779507,0.16208 3.14406,0.24714 2.35856,0.37719 -1.940397,0.32125 -3.936024,0.0541 -5.896757,0.2086 -3.015018,0.23768 13.310424,-0.34921 9.059076,-0.50478 1.886443,-0.31071 3.783603,-0.56221 5.659346,-0.93214 11.11769,-2.19255 21.90522,-5.967 31.5855,-11.92155 1.69442,-1.12705 3.43559,-2.18683 5.0833,-3.38117 4.75435,-3.44618 9.06923,-7.54984 12.39748,-12.4033 0,0 9.98354,0.58771 9.98354,0.58771 z"
       inkscape:connector-curvature="0" />
    <path
       style="fill:#ffffff;fill-opacity:1;fill-rule:nonzero;stroke:none"
       id="path3093"
       d="m 17.051404,921.08605 c -2.61551,-0.0243 -5.235576,0.083 -7.8465312,-0.0731 -1.0212256,-0.061 2.0414492,-0.13799 3.0617502,-0.21298 1.35742,-0.0998 2.715236,-0.19535 4.071374,-0.31134 5.425914,-0.46405 10.803831,-1.10907 16.195604,-1.86912 10.729223,-1.87199 21.440943,-3.80493 32.243928,-5.20619 1.002511,-0.11796 2.005023,-0.23593 3.007534,-0.35389 0,0 9.224314,1.36126 9.224314,1.36126 l 0,0 c -1.077734,0.10263 -2.155476,0.20526 -3.23321,0.30788 -10.999872,1.21984 -21.903598,3.05662 -32.778034,5.10543 -5.212658,0.79588 -10.413403,1.47257 -15.660017,2.00223 -1.263289,0.12754 -2.52857,0.23468 -3.792576,0.35495 -0.924222,0.0879 -1.84417,0.24034 -2.772101,0.26968 -3.852357,0.12182 -7.707602,0.12239 -11.5614065,0.18359 0,0 9.8393715,-1.55841 9.8393715,-1.55841 z"
       inkscape:connector-curvature="0" />
    <path
       style="fill:#ffffff;fill-opacity:1;fill-rule:nonzero;stroke:none"
       id="path3095"
       d="m 91.512347,952.19656 c 7.036949,-3.63101 13.722013,-7.89495 20.689443,-11.65456 2.52428,-1.36208 5.09174,-2.64254 7.63761,-3.96382 11.05738,-5.34078 22.84953,-9.1636 34.91424,-11.45581 6.18428,-1.17499 8.53771,-1.25273 14.5968,-1.80314 7.3656,-0.0991 9.94145,-0.21491 18.79872,0.3232 2.84351,0.17275 5.89892,1.05166 8.37366,2.48773 0.48849,0.28347 0.9218,0.65281 1.38268,0.97921 0.30585,0.31531 0.61167,0.63062 0.91752,0.94593 0,0 -9.82584,0.77052 -9.82584,0.77052 l 0,0 c -0.26634,-0.26008 -0.53265,-0.52017 -0.79897,-0.78026 -1.71862,-1.17972 -3.43419,-2.00828 -5.49227,-2.492 -1.11605,-0.26232 -4.08016,0.32511 -3.38857,-0.58928 0.83181,-1.09977 5.46212,-0.0628 4.11952,-0.37714 -1.91583,-0.44858 -3.93521,-0.027 -5.9028,-0.0405 -6.22981,0.45947 -8.77367,0.50039 -15.11241,1.62091 -12.04018,2.12835 -23.81273,5.87384 -34.78949,11.26047 -2.47019,1.31821 -4.97257,2.57781 -7.41058,3.9546 -6.43725,3.63526 -12.54489,7.80898 -18.71503,11.86876 0,0 -9.994233,-1.05494 -9.994233,-1.05494 z"
       inkscape:connector-curvature="0" />
    <path
       style="fill:#ffffff;fill-opacity:1;fill-rule:nonzero;stroke:none"
       id="path3097"
       d="m 199.80564,931.97098 c -0.21542,2.37175 0.008,4.75846 0.10141,7.13145 0.0385,0.98203 0.15751,1.9639 0.1191,2.94593 -0.0457,1.16708 -0.24704,2.32286 -0.37057,3.48429 -0.47274,1.29115 -0.72089,2.68844 -1.41825,3.87346 -3.82507,6.49991 -11.31113,9.17118 -18.1138,11.23227 -8.36676,2.53499 -13.32038,3.08142 -21.94992,4.53487 -8.92494,0.87819 -11.39699,1.3761 -20.12051,1.30454 -9.72927,-0.0798 -14.17002,0.13122 -22.52646,-1.49292 -4.29973,-0.83569 -5.33319,-1.33163 -9.18936,-2.67879 -0.91967,-0.43504 -1.83934,-0.87009 -2.759,-1.30513 0,0 9.33129,-1.04628 9.33129,-1.04628 l 0,0 c 0.81833,0.41352 1.63666,0.82703 2.45497,1.24055 3.53612,1.32155 4.4441,1.79601 8.43073,2.61048 2.10411,0.42988 4.26581,0.54856 6.36259,1.01294 0.21942,0.0487 0.23092,0.48955 0.45553,0.49708 8.0591,0.26999 12.43462,-0.39539 20.5683,-1.131 8.58612,-1.43574 13.09003,-1.87111 21.34786,-4.46827 6.21653,-1.95517 13.20767,-4.59595 16.62483,-10.6211 0.63403,-1.11793 0.83876,-2.42971 1.25814,-3.64457 0.0788,-1.11605 0.2336,-2.22932 0.23619,-3.34813 0.002,-0.98091 -0.13605,-1.95717 -0.22171,-2.93432 -0.21045,-2.40076 -0.53432,-4.79157 -0.68998,-7.19735 0,0 10.06862,0 10.06862,0 z"
       inkscape:connector-curvature="0" />
    <path
       style="fill:#ffffff;fill-opacity:1;fill-rule:nonzero;stroke:none"
       id="path3145"
       d="m 35.069899,911.96046 c -2.712263,-0.007 -5.429868,0.14794 -8.136789,-0.0224 -1.108181,-0.0698 2.216984,-0.14712 3.319284,-0.28078 1.623808,-0.19688 3.239936,-0.45396 4.855414,-0.71042 6.257089,-0.99327 12.452132,-2.2834 18.65905,-3.5445 1.996134,-0.39604 3.992262,-0.79208 5.988396,-1.18813 0,0 8.407938,1.16643 8.407938,1.16643 l 0,0 c -2.032538,0.3884 -4.065078,0.77677 -6.097624,1.16517 -6.048387,1.24261 -12.085434,2.51664 -18.155757,3.64812 -0.669676,0.12483 -6.034692,1.18274 -7.349763,1.2301 -3.797604,0.13679 -7.599806,0.0705 -11.399709,0.10594 0,0 9.90956,-1.56952 9.90956,-1.56952 z"
       inkscape:connector-curvature="0" />
    <path
       style="fill:#ffffff;fill-opacity:1;fill-rule:nonzero;stroke:none"
       id="path3151"
       d="m 71.550087,897.47568 c 0.366526,0.005 0.733038,0.01 1.099578,0.0131 1.022715,0.01 3.185526,0.0231 4.078214,0.0276 0.979378,0.005 3.91744,0.0239 2.938126,0.012 -6.713878,-0.0816 -7.750446,0.14465 -1.705225,-0.40679 7.068888,-0.91224 12.886597,-3.83545 18.340222,-8.33624 0.8905,-0.73489 1.719794,-1.54098 2.579696,-2.31147 1.981382,-1.82763 3.772732,-3.83389 5.510532,-5.88839 0,0 9.54347,0.69019 9.54347,0.69019 l 0,0 c -1.88511,2.0612 -3.81743,4.07609 -5.86861,5.97503 -0.89378,0.78971 -1.76032,1.61135 -2.68132,2.36911 -5.483245,4.51147 -11.316761,7.76243 -18.417791,8.83209 -1.286615,0.15242 -2.564938,0.41496 -3.859863,0.45725 -7.1508,0.2336 -14.313167,0.002 -21.466597,0.13597 0,0 9.909568,-1.56952 9.909568,-1.56952 z"
       inkscape:connector-curvature="0" />
    <path
       style="fill:#ffffff;fill-opacity:1;fill-rule:nonzero;stroke:none"
       id="path3153"
       d="m 101.05611,920.00755 c -2.690097,-0.0687 -5.451949,0.41477 -8.070319,-0.20614 -1.105319,-0.26211 2.213388,-0.53536 3.278559,-0.93018 1.632106,-0.60495 3.246341,-1.27244 4.79702,-2.0631 4.52561,-2.30755 8.09945,-4.73572 12.17451,-7.80078 2.04731,-1.53989 3.99621,-3.20644 5.99432,-4.80966 6.75579,-6.20292 3.56512,-3.14516 9.59928,-9.14472 0,0 8.44082,0.67946 8.44082,0.67946 l 0,0 c -6.38111,5.98128 -3.04944,2.9158 -10.00752,9.18287 -5.61909,4.57527 -11.19537,9.19412 -17.45924,12.88542 -0.44916,0.2647 -5.84211,3.19485 -7.19542,3.34077 -3.801236,0.40989 -7.641048,0.29039 -11.461571,0.43557 0,0 9.909561,-1.56951 9.909561,-1.56951 z"
       inkscape:connector-curvature="0" />
    <path
       style="fill:#ffffff;fill-opacity:1;fill-rule:nonzero;stroke:none"
       id="path3155"
       d="m 125.31257,951.13025 c 5.31778,-1.93833 10.6075,-3.97861 16.04433,-5.56843 1.8695,-0.54668 3.76104,-1.01492 5.64156,-1.52238 7.03563,-1.74551 14.18249,-2.94535 21.35232,-3.96986 0,0 8.77706,1.26887 8.77706,1.26887 l 0,0 c -7.25686,0.93714 -14.49331,2.05505 -21.60331,3.81995 -1.82239,0.50087 -3.65769,0.95703 -5.46721,1.50264 -5.04382,1.52082 -9.9466,3.50017 -14.75534,5.6392 0,0 -9.98941,-1.16999 -9.98941,-1.16999 z"
       inkscape:connector-curvature="0" />
  </g>
</svg>
